<svg xmlns="http://www.w3.org/2000/svg" viewBox="315.85 179.6 168.42 188.21">   <path fill="currentColor" opacity="1.000000" stroke="none" d="M 427.18 315.366 C 422.667 317.261 418.471 319.058 414.144 320.446 C 410.942 321.474 407.57 321.972 403.594 322.857 C 410.582 329.68 418.367 334.463 427.545 336.92 C 440.307 340.336 451.69 336.483 462.347 329.804 C 465.589 327.771 468.313 324.891 471.198 322.314 C 473.713 320.066 476.201 317.958 479.836 319.942 C 483.005 321.673 484.372 323.793 484.259 327.952 C 484.067 335.04 479.007 338.478 474.649 341.659 C 465.434 348.387 454.898 352.085 443.5 354.658 C 433.848 356.838 425.553 354.326 416.973 352.241 C 412.399 351.129 408.427 347.537 404.182 345.066 C 402.996 344.376 401.804 343.695 400.615 343.01 C 400.318 343.323 400.022 343.636 399.725 343.949 C 400.979 345.262 402.276 346.537 403.477 347.896 C 406.349 351.145 407.603 354.183 404.419 358.4 C 400.944 363.004 397.103 363.991 393.338 359.76 C 389.621 355.58 386.219 351.119 382.565 346.642 C 379.804 349.978 377.059 353.604 373.984 356.923 C 371.054 360.084 367.975 363.172 364.606 365.845 C 360.474 369.122 357.515 368.39 354.13 363.026 C 352.132 359.861 353.066 356.565 355.894 353.945 C 359.536 350.572 363.177 347.196 366.717 343.718 C 367.424 343.024 368.941 340.088 369.716 338.499 C 364.203 342.386 358.436 348.117 353.276 350.801 C 344.442 355.393 335.219 356.807 325.645 352.075 C 320.093 349.331 316.047 343.037 315.866 337.277 C 315.389 322.132 324.927 314.024 336.369 307.347 C 345.652 301.931 355.671 298.584 366.647 298.953 C 367.222 298.972 367.812 298.523 368.329 298.319 C 367.931 287.426 355.273 278.102 347.172 278.864 C 340.479 279.494 335.353 282.132 331.232 287.239 C 328.863 290.174 325.969 292.845 322.129 290.214 C 317.99 287.378 317.196 281.152 320.343 277.29 C 333.14 261.583 353.336 257.622 369.489 269.411 C 373.83 272.579 376.697 277.821 380.04 282.262 C 380.681 283.113 380.793 283.215 381.889 284.522 C 382.262 283.049 381.901 285.109 381.927 284.625 C 382.371 276.611 382.112 268.495 383.326 260.604 C 384.709 251.617 387.043 242.728 389.611 233.986 C 392.214 225.124 394.705 216.029 398.904 207.892 C 403.236 199.5 406.384 190.401 413.093 183.128 C 418.71 177.039 428.905 179.274 430.989 186.522 C 432.224 190.816 432.158 195.679 431.772 200.21 C 430.574 214.278 427.047 227.862 422.078 241.062 C 419.743 247.267 417.346 253.455 414.742 259.55 C 412.142 265.636 409.249 271.595 406.469 277.643 C 411.307 275.903 416.105 273.6 421.164 272.476 C 431.734 270.129 442.089 275.342 444.173 286.852 C 445.654 295.033 442.685 302.686 436.092 308.353 C 433.324 310.733 430.332 312.854 427.18 315.366 M 358.528 326.979 C 361.306 323.232 364.083 319.485 367.453 314.939 C 352.193 317.523 339.027 321.147 330.921 333.619 C 333.525 338.973 338.094 339.057 341.498 337.522 C 347.326 334.896 352.539 330.904 358.528 326.979 M 420.133 289.603 C 410.724 293.127 403.243 299.394 396.093 306.547 C 399.946 306.841 403.712 306.904 407.139 305.858 C 414.674 303.557 422.578 301.859 428.145 295.393 C 430.196 293.011 432.064 289.183 428.535 287.275 C 427.561 286.748 426.34 286.967 425.812 287.025 C 423.897 287.732 422.3 288.666 420.133 289.603 M 413.123 221.441 C 414.497 216.3 415.871 211.16 417.246 206.02 C 409.009 216.87 398.122 251.715 398.944 263.122 C 403.777 249.431 408.61 235.741 413.123 221.441"></path> </svg>