<svg xmlns="http://www.w3.org/2000/svg" xmlns:xlink="http://www.w3.org/1999/xlink" width="100%" zoomAndPan="magnify" viewBox="0 0 252 72" height="100%" preserveAspectRatio="xMidYMid meet" version="1.0"><defs><g/></defs><g fill="#000000" fill-opacity="1"><g transform="translate(19.736607, 42.307135)"><g><path d="M 20.46875 -4.796875 C 21.203125 -6.03125 21.6875 -5.71875 22.703125 -5.484375 C 23.953125 -5.015625 25.109375 -4.5625 26.15625 -4.1875 C 26.484375 -4.0625 26.703125 -3.796875 26.75 -3.4375 C 27.03125 -1.484375 27.4375 -0.453125 28.078125 -0.25 C 28.1875 -0.203125 28.296875 -0.21875 28.390625 -0.265625 C 28.484375 -0.3125 28.5625 -0.40625 28.59375 -0.5 C 28.65625 -0.734375 28.546875 -0.96875 28.328125 -1.046875 C 28.0625 -1.140625 27.84375 -1.78125 27.6875 -2.75 C 27.640625 -2.953125 27.71875 -3.15625 27.875 -3.28125 C 28.03125 -3.40625 28.25 -3.453125 28.4375 -3.390625 C 29.515625 -3 30.65625 -2.765625 31.8125 -2.703125 C 31.90625 -2.703125 32.015625 -2.75 32.09375 -2.828125 C 32.171875 -2.90625 32.203125 -3.015625 32.203125 -3.125 C 32.203125 -3.234375 32.15625 -3.34375 32.078125 -3.40625 C 32 -3.484375 31.890625 -3.53125 31.78125 -3.53125 C 30.5 -3.625 29.25 -3.9375 28.046875 -4.40625 C 27.6875 -4.515625 27.4375 -4.84375 27.40625 -5.203125 C 27.15625 -8.515625 27.125 -12.96875 27.109375 -15.46875 C 27.09375 -18.9375 27.0625 -20.28125 26.890625 -20.671875 C 26.828125 -20.84375 26.671875 -20.953125 26.5 -20.9375 C 26.3125 -20.921875 26.171875 -20.796875 26.125 -20.609375 C 25.1875 -17.234375 24.03125 -13.921875 22.640625 -10.703125 C 22.1875 -9.65625 21.75 -8.703125 21.28125 -7.8125 C 21.078125 -7.40625 20.5625 -7.21875 20.140625 -7.375 C 14.9375 -9.375 9 -11.515625 4.4375 -11.859375 C 2.6875 -11.984375 1.53125 -11.671875 1.046875 -10.921875 C 0.640625 -10.296875 0.71875 -9.453125 1.265625 -8.421875 C 3.015625 -5.234375 9.734375 -0.15625 14.453125 -0.15625 C 16.671875 -0.15625 18.71875 -2.109375 20.46875 -4.796875 Z M 3.65625 -11.046875 C 3.890625 -11.046875 4.125 -11.046875 4.375 -11.03125 C 8.703125 -10.703125 14.40625 -8.6875 19.4375 -6.75 C 19.703125 -6.65625 19.90625 -6.4375 19.984375 -6.1875 C 20.078125 -5.921875 20.03125 -5.625 19.890625 -5.390625 C 18.03125 -2.484375 16.1875 -1 14.453125 -1 C 10.390625 -1 3.796875 -5.53125 2 -8.8125 C 1.734375 -9.328125 1.453125 -10.015625 1.75 -10.46875 C 1.984375 -10.84375 2.671875 -11.046875 3.65625 -11.046875 Z M 25.953125 -17.140625 C 26.0625 -17.484375 26.265625 -17.40625 26.265625 -17.046875 C 26.265625 -16.546875 26.265625 -16 26.28125 -15.46875 C 26.296875 -11.5625 26.359375 -8.453125 26.5 -6.09375 C 26.53125 -5.828125 26.40625 -5.578125 26.203125 -5.421875 C 26 -5.265625 25.71875 -5.234375 25.484375 -5.328125 C 24.484375 -5.703125 23.40625 -6.125 22.296875 -6.546875 L 21.6875 -6.78125 C 23.40625 -10.109375 24.828125 -13.578125 25.953125 -17.140625 Z M 25.953125 -17.140625 "/></g></g></g><g fill="#000000" fill-opacity="1"><g transform="translate(52.75895, 42.307135)"><g><path d="M 13.265625 -3.84375 C 13.09375 -4.015625 12.828125 -4.03125 12.65625 -3.875 C 12.609375 -3.828125 7.890625 0.40625 4.984375 -1.5 C 3.828125 -2.265625 3.53125 -4.109375 3.53125 -4.125 C 3.515625 -4.3125 3.375 -4.453125 3.1875 -4.484375 C 3.015625 -4.5 2.828125 -4.40625 2.75 -4.25 C 2 -2.59375 0.6875 -0.5 0.3125 -0.75 C 0.28125 -0.75 0.21875 -0.8125 0.171875 -0.921875 C -0.015625 -1.4375 0.046875 -2.015625 0.3125 -2.5 C 0.921875 -3.75 2.03125 -4.625 3.359375 -4.96875 C 3.5 -5 3.609375 -5.109375 3.65625 -5.25 C 3.71875 -5.390625 3.65625 -5.546875 3.5625 -5.65625 C 3.453125 -5.75 3.3125 -5.796875 3.171875 -5.765625 C 1.578125 -5.390625 0.265625 -4.3125 -0.4375 -2.859375 C -0.828125 -2.140625 -0.875 -1.28125 -0.578125 -0.546875 C -0.421875 -0.171875 -0.078125 0.078125 0.3125 0.078125 L 0.328125 0.078125 C 1.109375 0.0625 2.078125 -0.90625 2.75 -1.953125 C 2.828125 -2.078125 2.96875 -2.140625 3.109375 -2.125 C 3.25 -2.125 3.375 -2.046875 3.4375 -1.921875 C 3.71875 -1.46875 4.078125 -1.09375 4.515625 -0.828125 C 7.984375 1.46875 13 -3.0625 13.234375 -3.25 C 13.3125 -3.328125 13.359375 -3.4375 13.359375 -3.53125 C 13.375 -3.640625 13.328125 -3.765625 13.265625 -3.84375 Z M 13.265625 -3.84375 "/></g></g></g><g fill="#000000" fill-opacity="1"><g transform="translate(65.562246, 42.307135)"><g><path d="M 10.875 -4.390625 C 10.796875 -4.46875 10.703125 -4.5 10.59375 -4.5 C 10.484375 -4.5 10.375 -4.46875 10.296875 -4.390625 C 8.765625 -2.953125 6.90625 -1.9375 4.859375 -1.4375 C 4.78125 -1.40625 4.671875 -1.4375 4.625 -1.5 C 4.578125 -1.578125 4.5625 -1.671875 4.609375 -1.75 C 4.90625 -2.296875 4.84375 -2.96875 4.46875 -3.46875 C 4.25 -3.78125 3.96875 -4.03125 3.625 -4.21875 C 3.1875 -4.515625 2.703125 -4.875 2.6875 -5.234375 C 2.703125 -5.4375 2.78125 -5.625 2.921875 -5.78125 L 3.78125 -6.59375 C 3.9375 -6.75 3.953125 -7.015625 3.8125 -7.171875 C 3.65625 -7.34375 3.421875 -7.375 3.234375 -7.234375 C 2.90625 -6.984375 2.578125 -6.6875 2.3125 -6.359375 L -0.125 -4.078125 C -0.234375 -3.984375 -0.28125 -3.828125 -0.25 -3.671875 C -0.21875 -3.515625 -0.109375 -3.40625 0.03125 -3.359375 C 0.171875 -3.328125 0.328125 -3.359375 0.4375 -3.46875 L 1.65625 -4.59375 C 1.71875 -4.65625 1.796875 -4.671875 1.875 -4.671875 C 1.953125 -4.65625 2.015625 -4.609375 2.046875 -4.546875 C 2.34375 -4.140625 2.734375 -3.796875 3.15625 -3.53125 C 3.390625 -3.390625 3.59375 -3.234375 3.78125 -3.03125 C 3.9375 -2.859375 4.015625 -2.609375 3.96875 -2.375 C 3.921875 -2.140625 3.78125 -1.9375 3.5625 -1.828125 C 2.546875 -1.25 1.265625 -1.515625 0.578125 -2.453125 C 0.453125 -2.625 0.203125 -2.703125 0.015625 -2.5625 C -0.171875 -2.453125 -0.234375 -2.21875 -0.125 -2.015625 C 0.390625 -1.109375 1.328125 -0.515625 2.375 -0.4375 C 2.65625 -0.390625 2.90625 -0.375 3.171875 -0.375 C 5.859375 -0.375 9.15625 -2.0625 10.875 -3.8125 C 11.03125 -3.96875 11.03125 -4.234375 10.875 -4.390625 Z M 10.875 -4.390625 "/></g></g></g><g fill="#000000" fill-opacity="1"><g transform="translate(75.798541, 42.307135)"><g><path d="M 12.515625 -3.796875 C 12.359375 -3.96875 12.09375 -3.984375 11.921875 -3.828125 C 11.890625 -3.8125 8.625 -0.953125 6.234375 -1.328125 C 5.515625 -1.4375 4.90625 -1.875 4.546875 -2.5 C 4.25 -3.0625 3.6875 -3.40625 3.078125 -3.46875 C 2.296875 -3.515625 1.4375 -3.0625 0.546875 -2.109375 C 0.484375 -2.0625 0.40625 -2.046875 0.34375 -2.078125 C 0.28125 -2.109375 0.25 -2.171875 0.265625 -2.25 C 0.3125 -2.546875 0.453125 -3.3125 0.515625 -3.59375 C 0.515625 -3.546875 0.640625 -3.78125 0.640625 -3.796875 C 1.984375 -5.625 6.015625 -11.46875 4.4375 -13.34375 C 4.234375 -13.625 3.859375 -13.75 3.5 -13.65625 C 3.1875 -13.5625 2.21875 -13.265625 0.734375 -7.96875 C 0.359375 -6.671875 0.03125 -5.296875 -0.234375 -4 L -0.34375 -3.859375 C -0.453125 -3.71875 -0.453125 -3.515625 -0.359375 -3.359375 C -0.609375 -2.1875 -0.765625 -1.109375 -0.84375 -0.28125 C -0.859375 -0.09375 -0.75 0.078125 -0.578125 0.140625 C -0.390625 0.203125 -0.1875 0.140625 -0.078125 -0.015625 C 1.53125 -2.359375 2.5625 -2.671875 3.03125 -2.65625 C 3.359375 -2.609375 3.65625 -2.40625 3.828125 -2.109375 C 4.296875 -1.25 5.140625 -0.65625 6.125 -0.5 C 8.875 -0.078125 12.328125 -3.078125 12.484375 -3.203125 C 12.640625 -3.359375 12.65625 -3.609375 12.515625 -3.796875 Z M 3.75 -12.859375 C 3.78125 -12.859375 3.796875 -12.8125 3.8125 -12.796875 C 4.5625 -11.9375 1.40625 -5.5625 1.015625 -5.828125 C 0.640625 -6.0625 3.078125 -12.859375 3.75 -12.859375 Z M 3.75 -12.859375 "/></g></g></g><g fill="#000000" fill-opacity="1"><g transform="translate(87.777854, 42.307135)"><g><path d="M 13.265625 -3.84375 C 13.09375 -4.015625 12.828125 -4.03125 12.65625 -3.875 C 12.609375 -3.828125 7.890625 0.40625 4.984375 -1.5 C 3.828125 -2.265625 3.53125 -4.109375 3.53125 -4.125 C 3.515625 -4.3125 3.375 -4.453125 3.1875 -4.484375 C 3.015625 -4.5 2.828125 -4.40625 2.75 -4.25 C 2 -2.59375 0.6875 -0.5 0.3125 -0.75 C 0.28125 -0.75 0.21875 -0.8125 0.171875 -0.921875 C -0.015625 -1.4375 0.046875 -2.015625 0.3125 -2.5 C 0.921875 -3.75 2.03125 -4.625 3.359375 -4.96875 C 3.5 -5 3.609375 -5.109375 3.65625 -5.25 C 3.71875 -5.390625 3.65625 -5.546875 3.5625 -5.65625 C 3.453125 -5.75 3.3125 -5.796875 3.171875 -5.765625 C 1.578125 -5.390625 0.265625 -4.3125 -0.4375 -2.859375 C -0.828125 -2.140625 -0.875 -1.28125 -0.578125 -0.546875 C -0.421875 -0.171875 -0.078125 0.078125 0.3125 0.078125 L 0.328125 0.078125 C 1.109375 0.0625 2.078125 -0.90625 2.75 -1.953125 C 2.828125 -2.078125 2.96875 -2.140625 3.109375 -2.125 C 3.25 -2.125 3.375 -2.046875 3.4375 -1.921875 C 3.71875 -1.46875 4.078125 -1.09375 4.515625 -0.828125 C 7.984375 1.46875 13 -3.0625 13.234375 -3.25 C 13.3125 -3.328125 13.359375 -3.4375 13.359375 -3.53125 C 13.375 -3.640625 13.328125 -3.765625 13.265625 -3.84375 Z M 13.265625 -3.84375 "/></g></g></g><g fill="#000000" fill-opacity="1"><g transform="translate(100.58115, 42.307135)"><g><path d="M 13.859375 -3.953125 C 13.765625 -4.015625 13.671875 -4.0625 13.5625 -4.0625 C 13.453125 -4.046875 13.34375 -4 13.28125 -3.921875 C 13.234375 -3.890625 9.734375 -0.15625 6.703125 -1.375 C 6.0625 -1.734375 5.53125 -2.25 5.171875 -2.90625 C 5.046875 -3.109375 4.890625 -3.3125 4.6875 -3.5 C 4.484375 -3.765625 4.171875 -3.90625 3.84375 -3.921875 C 3.03125 -3.984375 2.046875 -3.4375 0.875 -2.328125 C 0.84375 -2.296875 0.796875 -2.28125 0.75 -2.3125 C 0.703125 -2.328125 0.671875 -2.390625 0.6875 -2.4375 L 1.03125 -4 C 1.09375 -4.21875 0.953125 -4.453125 0.734375 -4.5 C 0.5 -4.546875 0.28125 -4.40625 0.21875 -4.1875 L -0.578125 -0.71875 C -0.625 -0.515625 -0.515625 -0.328125 -0.34375 -0.25 C -0.171875 -0.15625 0.03125 -0.203125 0.15625 -0.34375 C 2.28125 -2.84375 3.359375 -3.078125 3.75 -3.09375 C 4.125 -3.109375 4.359375 -2.609375 4.484375 -2.421875 C 4.9375 -1.65625 5.59375 -1.015625 6.390625 -0.625 C 9.9375 0.828125 13.71875 -3.1875 13.875 -3.359375 C 14.03125 -3.515625 14.015625 -3.796875 13.859375 -3.953125 Z M 13.859375 -3.953125 "/></g></g></g><g fill="#000000" fill-opacity="1"><g transform="translate(113.780584, 42.307135)"><g><path d="M 13.265625 -3.84375 C 13.09375 -4.015625 12.828125 -4.03125 12.65625 -3.875 C 12.609375 -3.828125 7.890625 0.40625 4.984375 -1.5 C 3.828125 -2.265625 3.53125 -4.109375 3.53125 -4.125 C 3.515625 -4.3125 3.375 -4.453125 3.1875 -4.484375 C 3.015625 -4.5 2.828125 -4.40625 2.75 -4.25 C 2 -2.59375 0.6875 -0.5 0.3125 -0.75 C 0.28125 -0.75 0.21875 -0.8125 0.171875 -0.921875 C -0.015625 -1.4375 0.046875 -2.015625 0.3125 -2.5 C 0.921875 -3.75 2.03125 -4.625 3.359375 -4.96875 C 3.5 -5 3.609375 -5.109375 3.65625 -5.25 C 3.71875 -5.390625 3.65625 -5.546875 3.5625 -5.65625 C 3.453125 -5.75 3.3125 -5.796875 3.171875 -5.765625 C 1.578125 -5.390625 0.265625 -4.3125 -0.4375 -2.859375 C -0.828125 -2.140625 -0.875 -1.28125 -0.578125 -0.546875 C -0.421875 -0.171875 -0.078125 0.078125 0.3125 0.078125 L 0.328125 0.078125 C 1.109375 0.0625 2.078125 -0.90625 2.75 -1.953125 C 2.828125 -2.078125 2.96875 -2.140625 3.109375 -2.125 C 3.25 -2.125 3.375 -2.046875 3.4375 -1.921875 C 3.71875 -1.46875 4.078125 -1.09375 4.515625 -0.828125 C 7.984375 1.46875 13 -3.0625 13.234375 -3.25 C 13.3125 -3.328125 13.359375 -3.4375 13.359375 -3.53125 C 13.375 -3.640625 13.328125 -3.765625 13.265625 -3.84375 Z M 13.265625 -3.84375 "/></g></g></g><g fill="#000000" fill-opacity="1"><g transform="translate(126.58388, 42.307135)"><g/></g></g><g fill="#000000" fill-opacity="1"><g transform="translate(132.478461, 42.307135)"><g><path d="M 5.15625 0 C 5.34375 0.015625 5.5 -0.109375 5.546875 -0.265625 C 5.609375 -0.4375 5.546875 -0.640625 5.40625 -0.75 C 5.1875 -0.90625 5 -1.09375 4.8125 -1.28125 C 4.703125 -1.375 4.65625 -1.5 4.65625 -1.640625 C 4.65625 -1.765625 4.71875 -1.875 4.8125 -1.96875 C 5.65625 -2.765625 6.328125 -3.75 6.296875 -4.578125 C 6.265625 -5.171875 5.90625 -5.6875 5.34375 -5.921875 C 5.140625 -6.015625 4.890625 -5.9375 4.796875 -5.71875 C 4.671875 -5.515625 4.78125 -5.265625 4.984375 -5.171875 C 5.390625 -4.96875 5.453125 -4.703125 5.453125 -4.546875 C 5.484375 -3.984375 4.953125 -3.21875 4.234375 -2.5625 C 4.15625 -2.484375 4.0625 -2.453125 3.953125 -2.453125 C 3.84375 -2.46875 3.75 -2.515625 3.671875 -2.59375 C 3.25 -3.171875 2.859375 -3.765625 2.484375 -4.375 C 2.375 -4.5625 2.359375 -4.8125 2.4375 -5.015625 C 2.609375 -5.5 2.8125 -5.984375 2.953125 -6.359375 C 3.984375 -9.0625 4.578125 -10.75 4.0625 -11.5 C 3.890625 -11.75 3.59375 -11.890625 3.3125 -11.875 C 3.265625 -11.875 3.21875 -11.859375 3.1875 -11.859375 C 1.578125 -11.375 0.671875 -10.4375 0.40625 -9.046875 C 0.1875 -7.78125 0.625 -6.3125 1.28125 -4.921875 C 1.359375 -4.734375 1.375 -4.53125 1.3125 -4.34375 C 0.703125 -2.5 0.4375 -1.0625 1.28125 -0.5625 C 1.921875 -0.1875 2.859375 -0.609375 3.515625 -0.984375 C 3.828125 -1.15625 3.90625 -1.046875 3.953125 -1 C 4.234375 -0.671875 4.5625 -0.34375 4.921875 -0.078125 C 4.984375 -0.015625 5.078125 0 5.15625 0 Z M 3.0625 -2.046875 C 3.1875 -1.890625 3.21875 -1.765625 2.984375 -1.640625 C 2.28125 -1.234375 1.84375 -1.203125 1.71875 -1.265625 C 1.421875 -1.4375 1.5625 -2.28125 1.875 -3.28125 C 1.890625 -3.34375 1.9375 -3.390625 2.015625 -3.40625 C 2.078125 -3.40625 2.140625 -3.375 2.171875 -3.3125 C 2.453125 -2.875 2.78125 -2.4375 3.0625 -2.046875 Z M 1.234375 -8.890625 C 1.40625 -9.9375 2.71875 -11.28125 3.375 -11.03125 C 3.859375 -10.84375 2.71875 -8.078125 2.171875 -6.65625 C 2.09375 -6.46875 2.03125 -6.28125 1.96875 -6.109375 C 1.90625 -5.96875 1.765625 -5.859375 1.671875 -6.078125 C 1.265625 -6.96875 1.125 -7.953125 1.234375 -8.890625 Z M 1.234375 -8.890625 "/></g></g></g><g fill="#000000" fill-opacity="1"><g transform="translate(139.133633, 42.307135)"><g/></g></g><g fill="#000000" fill-opacity="1"><g transform="translate(145.028213, 42.307135)"><g><path d="M 43.4375 -23 C 41.578125 -23.5625 39.234375 -23.015625 37.390625 -22.578125 C 34.984375 -22.03125 32.65625 -21.140625 30.421875 -20.09375 C 25.859375 -17.984375 21.640625 -15.203125 17.6875 -12.1875 C 15.953125 -10.859375 14.234375 -9.5 12.609375 -8.0625 C 14.15625 -11.421875 15.25 -14.9375 15.8125 -17.078125 C 15.9375 -17.5625 15.296875 -17.78125 15.046875 -17.390625 C 13.6875 -15.484375 11.40625 -13.984375 9.484375 -16.15625 C 9.125 -16.578125 8.53125 -15.984375 8.890625 -15.578125 C 10.6875 -13.53125 12.84375 -14.078125 14.53125 -15.578125 C 12.5625 -8.9375 7.265625 4.734375 -0.109375 -1.1875 C -0.515625 -1.5 -1.125 -0.9375 -0.71875 -0.59375 C 4.515625 3.59375 8.71875 -0.640625 11.640625 -6.109375 C 11.703125 -6.125 11.75 -6.15625 11.8125 -6.203125 C 12.921875 -7.25 14.0625 -8.265625 15.234375 -9.265625 C 16.703125 -6.46875 18.828125 -3.828125 21.296875 -1.9375 C 26.171875 1.78125 31.609375 1.015625 36.25 -2.65625 C 36.6875 -2.984375 36.078125 -3.5625 35.671875 -3.25 C 30.8125 0.609375 25.28125 0.6875 20.6875 -3.53125 C 18.765625 -5.296875 17.078125 -7.46875 15.890625 -9.796875 C 19.984375 -13.15625 24.4375 -16.140625 29.09375 -18.53125 C 31.484375 -19.765625 33.984375 -20.828125 36.609375 -21.515625 C 38.359375 -22.015625 42.125 -23.21875 43.796875 -21.953125 C 46.5 -19.90625 40.5625 -14.296875 37.6875 -16.6875 C 37.265625 -17.015625 36.6875 -16.4375 37.09375 -16.09375 C 41.59375 -12.359375 48.40625 -21.46875 43.4375 -23 Z M 43.4375 -23 "/></g></g></g><g fill="#000000" fill-opacity="1"><g transform="translate(182.677498, 42.307135)"><g><path d="M 13.75 -4.453125 C 13.671875 -4.53125 13.5625 -4.5625 13.453125 -4.5625 C 13.34375 -4.5625 13.25 -4.515625 13.15625 -4.4375 C 11.734375 -2.9375 8.53125 -0.734375 6.1875 -0.734375 L 6.15625 -0.734375 C 5.5 -0.703125 4.890625 -0.953125 4.4375 -1.40625 C 3.875 -2.03125 4.265625 -3.71875 4.453125 -4.25 C 4.53125 -4.453125 4.4375 -4.671875 4.25 -4.75 C 4.078125 -4.859375 3.84375 -4.8125 3.734375 -4.625 C 2.5 -2.859375 0.765625 -1.125 0.1875 -1.453125 C 0 -1.578125 0.28125 -2.8125 1.0625 -4.1875 C 1.15625 -4.375 1.09375 -4.609375 0.90625 -4.71875 C 0.71875 -4.84375 0.453125 -4.796875 0.34375 -4.59375 C -0.1875 -3.65625 -1.3125 -1.390625 -0.234375 -0.75 C 0.625 -0.234375 1.78125 -1.0625 2.75 -2.0625 C 2.84375 -2.171875 2.984375 -2.203125 3.109375 -2.15625 C 3.234375 -2.125 3.328125 -2.015625 3.359375 -1.875 C 3.40625 -1.484375 3.5625 -1.140625 3.828125 -0.84375 C 4.421875 -0.203125 5.265625 0.140625 6.140625 0.109375 L 6.1875 0.109375 C 8.796875 0.109375 12.203125 -2.203125 13.765625 -3.859375 C 13.84375 -3.953125 13.875 -4.046875 13.875 -4.15625 C 13.875 -4.265625 13.828125 -4.375 13.75 -4.453125 Z M 13.75 -4.453125 "/></g></g></g><g fill="#000000" fill-opacity="1"><g transform="translate(195.781856, 42.307135)"><g><path d="M 13.859375 -3.953125 C 13.765625 -4.015625 13.671875 -4.0625 13.5625 -4.0625 C 13.453125 -4.046875 13.34375 -4 13.28125 -3.921875 C 13.234375 -3.890625 9.734375 -0.15625 6.703125 -1.375 C 6.0625 -1.734375 5.53125 -2.25 5.171875 -2.90625 C 5.046875 -3.109375 4.890625 -3.3125 4.6875 -3.5 C 4.484375 -3.765625 4.171875 -3.90625 3.84375 -3.921875 C 3.03125 -3.984375 2.046875 -3.4375 0.875 -2.328125 C 0.84375 -2.296875 0.796875 -2.28125 0.75 -2.3125 C 0.703125 -2.328125 0.671875 -2.390625 0.6875 -2.4375 L 1.03125 -4 C 1.09375 -4.21875 0.953125 -4.453125 0.734375 -4.5 C 0.5 -4.546875 0.28125 -4.40625 0.21875 -4.1875 L -0.578125 -0.71875 C -0.625 -0.515625 -0.515625 -0.328125 -0.34375 -0.25 C -0.171875 -0.15625 0.03125 -0.203125 0.15625 -0.34375 C 2.28125 -2.84375 3.359375 -3.078125 3.75 -3.09375 C 4.125 -3.109375 4.359375 -2.609375 4.484375 -2.421875 C 4.9375 -1.65625 5.59375 -1.015625 6.390625 -0.625 C 9.9375 0.828125 13.71875 -3.1875 13.875 -3.359375 C 14.03125 -3.515625 14.015625 -3.796875 13.859375 -3.953125 Z M 13.859375 -3.953125 "/></g></g></g><g fill="#000000" fill-opacity="1"><g transform="translate(208.981289, 42.307135)"><g><path d="M 13.265625 -3.84375 C 13.09375 -4.015625 12.828125 -4.03125 12.65625 -3.875 C 12.609375 -3.828125 7.890625 0.40625 4.984375 -1.5 C 3.828125 -2.265625 3.53125 -4.109375 3.53125 -4.125 C 3.515625 -4.3125 3.375 -4.453125 3.1875 -4.484375 C 3.015625 -4.5 2.828125 -4.40625 2.75 -4.25 C 2 -2.59375 0.6875 -0.5 0.3125 -0.75 C 0.28125 -0.75 0.21875 -0.8125 0.171875 -0.921875 C -0.015625 -1.4375 0.046875 -2.015625 0.3125 -2.5 C 0.921875 -3.75 2.03125 -4.625 3.359375 -4.96875 C 3.5 -5 3.609375 -5.109375 3.65625 -5.25 C 3.71875 -5.390625 3.65625 -5.546875 3.5625 -5.65625 C 3.453125 -5.75 3.3125 -5.796875 3.171875 -5.765625 C 1.578125 -5.390625 0.265625 -4.3125 -0.4375 -2.859375 C -0.828125 -2.140625 -0.875 -1.28125 -0.578125 -0.546875 C -0.421875 -0.171875 -0.078125 0.078125 0.3125 0.078125 L 0.328125 0.078125 C 1.109375 0.0625 2.078125 -0.90625 2.75 -1.953125 C 2.828125 -2.078125 2.96875 -2.140625 3.109375 -2.125 C 3.25 -2.125 3.375 -2.046875 3.4375 -1.921875 C 3.71875 -1.46875 4.078125 -1.09375 4.515625 -0.828125 C 7.984375 1.46875 13 -3.0625 13.234375 -3.25 C 13.3125 -3.328125 13.359375 -3.4375 13.359375 -3.53125 C 13.375 -3.640625 13.328125 -3.765625 13.265625 -3.84375 Z M 13.265625 -3.84375 "/></g></g></g><g fill="#000000" fill-opacity="1"><g transform="translate(221.784586, 42.307135)"><g><path d="M 10.90625 -4.0625 C 10.828125 -4.140625 10.71875 -4.1875 10.609375 -4.1875 C 10.5 -4.1875 10.390625 -4.140625 10.3125 -4.0625 C 10.28125 -4.03125 6.109375 0.078125 3.109375 -0.828125 C 2.046875 -1.140625 1.453125 -2.15625 1.125 -3.234375 C 1.03125 -3.578125 1.0625 -3.96875 1.21875 -4.296875 C 2.328125 -6.546875 5.0625 -12.453125 3.71875 -13.890625 C 3.390625 -14.296875 2.875 -14.421875 2.40625 -14.21875 C 0.8125 -13.53125 -0.25 -8.84375 -0.0625 -5.4375 C -0.03125 -4.921875 0.03125 -4.390625 0.125 -3.875 C 0.125 -3.8125 0.125 -3.765625 0.15625 -3.71875 C 0.578125 -1.71875 1.5 -0.421875 2.875 -0.03125 C 3.25 0.078125 3.625 0.140625 4.015625 0.140625 C 7.234375 0.140625 10.734375 -3.3125 10.890625 -3.46875 C 10.96875 -3.546875 11.015625 -3.640625 11.015625 -3.765625 C 11.015625 -3.890625 10.984375 -3.984375 10.90625 -4.0625 Z M 0.8125 -5.671875 C 0.3125 -8.328125 1.953125 -13.125 2.75 -13.46875 C 2.78125 -13.484375 2.8125 -13.5 2.84375 -13.5 C 2.90625 -13.5 2.984375 -13.46875 3.09375 -13.34375 C 3.734375 -12.671875 1.921875 -6.9375 1.078125 -5.578125 C 1 -5.4375 0.84375 -5.515625 0.8125 -5.671875 Z M 0.8125 -5.671875 "/></g></g></g></svg>